# Blender v2.79 (sub 6) OBJ File: ''
# www.blender.org
o Cube
v 0.500000 -0.500000 -0.500000
v 0.500000 -0.500000 0.500000
v -0.500000 -0.500000 0.500000
v -0.500000 -0.500000 -0.500000
v 0.500000 0.500000 -0.500000
v 0.500000 0.500000 0.500000
v -0.500000 0.500000 0.500000
v -0.500000 0.500000 -0.500000
v 0.500000 0.000000 -0.500000
v 0.500000 0.000000 0.500000
v -0.500000 0.000000 0.500000
v -0.500000 0.000000 -0.500000
vt 0.000100 0.000100
vt 0.999900 0.000100
vt 0.999900 0.999899
vt 0.000101 0.999900
vt 0.999999 0.500000
vt 1.000000 1.000000
vt -0.000000 1.000000
vt -0.000000 0.500000
vt 1.000000 0.500000
vt 1.000000 1.000000
vt 0.000000 1.000000
vt 0.000000 0.500000
vt 1.000000 0.500000
vt 1.000000 1.000000
vt 0.000001 1.000000
vt 0.000000 0.500000
vt 0.000000 1.000000
vt 0.000000 0.500000
vt 1.000000 0.500000
vt 1.000000 1.000000
vt 0.000100 0.999900
vt 0.000100 0.000100
vt 0.999900 0.000100
vt 0.999900 0.999900
vt 0.000000 0.000000
vt 1.000000 0.000000
vt 1.000000 0.000000
vt 0.000000 0.000000
vt 1.000000 0.000000
vt 0.000000 0.000000
vt 1.000000 0.000000
vt 0.000000 0.000000
vn 0.0000 1.0000 0.0000
vn 1.0000 -0.0000 0.0000
vn -0.0000 -0.0000 1.0000
vn -1.0000 -0.0000 -0.0000
vn 0.0000 0.0000 -1.0000
vn 0.0000 -1.0000 0.0000
g Cube_Cube_Top
s off
f 5/1/1 8/2/1 7/3/1 6/4/1
f 9/5/2 5/6/2 6/7/2 10/8/2
f 10/9/3 6/10/3 7/11/3 11/12/3
f 11/13/4 7/14/4 8/15/4 12/16/4
f 5/17/5 9/18/5 12/19/5 8/20/5
g Cube_Cube_Bottom
f 1/21/6 2/22/6 3/23/6 4/24/6
f 9/18/5 1/25/5 4/26/5 12/19/5
f 3/27/4 11/13/4 12/16/4 4/28/4
f 2/29/3 10/9/3 11/12/3 3/30/3
f 1/31/2 9/5/2 10/8/2 2/32/2
